<svg width="24" height="24" viewBox="0 0 24 24" fill="none" xmlns="http://www.w3.org/2000/svg">
<circle cx="12" cy="12" r="12" fill="url(#paint0_linear_45_8)"/>
<path d="M8.01136 18V6.36364H12.6705C13.5265 6.36364 14.2405 6.49053 14.8125 6.74432C15.3845 6.99811 15.8144 7.35038 16.1023 7.80114C16.3902 8.24811 16.5341 8.76326 16.5341 9.34659C16.5341 9.80114 16.4432 10.2008 16.2614 10.5455C16.0795 10.8864 15.8295 11.1667 15.5114 11.3864C15.197 11.6023 14.8371 11.7557 14.4318 11.8466V11.9602C14.875 11.9792 15.2898 12.1042 15.6761 12.3352C16.0663 12.5663 16.3826 12.8902 16.625 13.3068C16.8674 13.7197 16.9886 14.2121 16.9886 14.7841C16.9886 15.4015 16.8352 15.9527 16.5284 16.4375C16.2254 16.9186 15.7765 17.2992 15.1818 17.5795C14.5871 17.8598 13.8542 18 12.983 18H8.01136ZM10.4716 15.9886H12.4773C13.1629 15.9886 13.6629 15.858 13.9773 15.5966C14.2917 15.3314 14.4489 14.9792 14.4489 14.5398C14.4489 14.2178 14.3712 13.9337 14.2159 13.6875C14.0606 13.4413 13.839 13.2481 13.5511 13.108C13.267 12.9678 12.928 12.8977 12.5341 12.8977H10.4716V15.9886ZM10.4716 11.233H12.2955C12.6326 11.233 12.9318 11.1742 13.1932 11.0568C13.4583 10.9356 13.6667 10.7652 13.8182 10.5455C13.9735 10.3258 14.0511 10.0625 14.0511 9.75568C14.0511 9.33523 13.9015 8.99621 13.6023 8.73864C13.3068 8.48106 12.8864 8.35227 12.3409 8.35227H10.4716V11.233Z" fill="white"/>
<defs>
<linearGradient id="paint0_linear_45_8" x1="23.5" y1="0.500001" x2="1.40071e-06" y2="24" gradientUnits="userSpaceOnUse">
<stop stop-color="#1BBAFB"/>
<stop offset="1" stop-color="#106E95"/>
</linearGradient>
</defs>
</svg>